<mxfile host="app.diagrams.net" modified="2024-06-08T03:50:43.100Z" agent="Mozilla/5.0 (Windows NT 10.0; Win64; x64) AppleWebKit/537.36 (KHTML, like Gecko) Chrome/124.0.0.0 Safari/537.36" etag="Y-9qplyHCsufpyqUrT6m" version="24.5.1" type="device">
  <diagram name="Trang-1" id="b4oUlgtAhlrX_H9FUYgD">
    <mxGraphModel dx="271" dy="112" grid="1" gridSize="10" guides="1" tooltips="1" connect="1" arrows="1" fold="1" page="1" pageScale="1" pageWidth="827" pageHeight="1169" math="0" shadow="0">
      <root>
        <mxCell id="0" />
        <mxCell id="1" parent="0" />
        <mxCell id="EfGRZh3mrynFkJjudllw-10" value="" style="rounded=0;orthogonalLoop=1;jettySize=auto;html=1;entryX=0;entryY=0.5;entryDx=0;entryDy=0;endArrow=none;endFill=0;" edge="1" parent="1" source="EfGRZh3mrynFkJjudllw-1" target="EfGRZh3mrynFkJjudllw-5">
          <mxGeometry relative="1" as="geometry" />
        </mxCell>
        <mxCell id="EfGRZh3mrynFkJjudllw-15" value="" style="rounded=0;orthogonalLoop=1;jettySize=auto;html=1;entryX=0;entryY=0.5;entryDx=0;entryDy=0;endArrow=none;endFill=0;" edge="1" parent="1" source="EfGRZh3mrynFkJjudllw-1" target="EfGRZh3mrynFkJjudllw-4">
          <mxGeometry relative="1" as="geometry" />
        </mxCell>
        <mxCell id="EfGRZh3mrynFkJjudllw-16" style="rounded=0;orthogonalLoop=1;jettySize=auto;html=1;entryX=0;entryY=0.5;entryDx=0;entryDy=0;endArrow=none;endFill=0;" edge="1" parent="1" source="EfGRZh3mrynFkJjudllw-1" target="EfGRZh3mrynFkJjudllw-6">
          <mxGeometry relative="1" as="geometry" />
        </mxCell>
        <mxCell id="EfGRZh3mrynFkJjudllw-1" value="" style="ellipse;whiteSpace=wrap;html=1;aspect=fixed;fillColor=#ffff88;strokeColor=#36393d;" vertex="1" parent="1">
          <mxGeometry x="384" y="280" width="30" height="30" as="geometry" />
        </mxCell>
        <mxCell id="EfGRZh3mrynFkJjudllw-9" style="rounded=0;orthogonalLoop=1;jettySize=auto;html=1;entryX=1;entryY=0;entryDx=0;entryDy=0;endArrow=none;endFill=0;" edge="1" parent="1" source="EfGRZh3mrynFkJjudllw-3" target="EfGRZh3mrynFkJjudllw-1">
          <mxGeometry relative="1" as="geometry" />
        </mxCell>
        <mxCell id="EfGRZh3mrynFkJjudllw-14" style="rounded=0;orthogonalLoop=1;jettySize=auto;html=1;entryX=0;entryY=0;entryDx=0;entryDy=0;endArrow=none;endFill=0;" edge="1" parent="1" source="EfGRZh3mrynFkJjudllw-3" target="EfGRZh3mrynFkJjudllw-4">
          <mxGeometry relative="1" as="geometry" />
        </mxCell>
        <mxCell id="EfGRZh3mrynFkJjudllw-3" value="" style="ellipse;whiteSpace=wrap;html=1;aspect=fixed;fillColor=#ffff88;strokeColor=#36393d;" vertex="1" parent="1">
          <mxGeometry x="435" y="250" width="30" height="30" as="geometry" />
        </mxCell>
        <mxCell id="EfGRZh3mrynFkJjudllw-20" style="rounded=0;orthogonalLoop=1;jettySize=auto;html=1;entryX=0;entryY=0.5;entryDx=0;entryDy=0;endArrow=none;endFill=0;" edge="1" parent="1" source="EfGRZh3mrynFkJjudllw-4" target="EfGRZh3mrynFkJjudllw-17">
          <mxGeometry relative="1" as="geometry" />
        </mxCell>
        <mxCell id="EfGRZh3mrynFkJjudllw-4" value="" style="ellipse;whiteSpace=wrap;html=1;aspect=fixed;fillColor=#ffff88;strokeColor=#36393d;" vertex="1" parent="1">
          <mxGeometry x="490" y="280" width="30" height="30" as="geometry" />
        </mxCell>
        <mxCell id="EfGRZh3mrynFkJjudllw-5" value="" style="ellipse;whiteSpace=wrap;html=1;aspect=fixed;direction=south;flipH=1;flipV=1;fillColor=#ffff88;strokeColor=#36393d;" vertex="1" parent="1">
          <mxGeometry x="384" y="330" width="30" height="30" as="geometry" />
        </mxCell>
        <mxCell id="EfGRZh3mrynFkJjudllw-11" style="rounded=0;orthogonalLoop=1;jettySize=auto;html=1;entryX=1;entryY=0;entryDx=0;entryDy=0;endArrow=none;endFill=0;" edge="1" parent="1" source="EfGRZh3mrynFkJjudllw-6" target="EfGRZh3mrynFkJjudllw-5">
          <mxGeometry relative="1" as="geometry" />
        </mxCell>
        <mxCell id="EfGRZh3mrynFkJjudllw-12" style="rounded=0;orthogonalLoop=1;jettySize=auto;html=1;entryX=1;entryY=1;entryDx=0;entryDy=0;endArrow=none;endFill=0;" edge="1" parent="1" source="EfGRZh3mrynFkJjudllw-6" target="EfGRZh3mrynFkJjudllw-7">
          <mxGeometry relative="1" as="geometry" />
        </mxCell>
        <mxCell id="EfGRZh3mrynFkJjudllw-6" value="" style="ellipse;whiteSpace=wrap;html=1;aspect=fixed;direction=south;flipH=1;flipV=1;fillColor=#ffff88;strokeColor=#36393d;" vertex="1" parent="1">
          <mxGeometry x="435" y="360" width="30" height="30" as="geometry" />
        </mxCell>
        <mxCell id="EfGRZh3mrynFkJjudllw-21" style="rounded=0;orthogonalLoop=1;jettySize=auto;html=1;entryX=0.5;entryY=1;entryDx=0;entryDy=0;endArrow=none;endFill=0;" edge="1" parent="1" source="EfGRZh3mrynFkJjudllw-7" target="EfGRZh3mrynFkJjudllw-18">
          <mxGeometry relative="1" as="geometry" />
        </mxCell>
        <mxCell id="EfGRZh3mrynFkJjudllw-7" value="" style="ellipse;whiteSpace=wrap;html=1;aspect=fixed;direction=south;flipH=1;flipV=1;fillColor=#ffff88;strokeColor=#36393d;" vertex="1" parent="1">
          <mxGeometry x="490" y="330" width="30" height="30" as="geometry" />
        </mxCell>
        <mxCell id="EfGRZh3mrynFkJjudllw-13" value="" style="rounded=0;orthogonalLoop=1;jettySize=auto;html=1;entryX=0;entryY=0.5;entryDx=0;entryDy=0;endArrow=none;endFill=0;exitX=0.5;exitY=1;exitDx=0;exitDy=0;" edge="1" parent="1" source="EfGRZh3mrynFkJjudllw-4" target="EfGRZh3mrynFkJjudllw-7">
          <mxGeometry relative="1" as="geometry">
            <mxPoint x="504.79" y="310" as="sourcePoint" />
            <mxPoint x="504.79" y="330" as="targetPoint" />
          </mxGeometry>
        </mxCell>
        <mxCell id="EfGRZh3mrynFkJjudllw-17" value="" style="ellipse;whiteSpace=wrap;html=1;aspect=fixed;fillColor=#ffff88;strokeColor=#36393d;" vertex="1" parent="1">
          <mxGeometry x="550" y="280" width="30" height="30" as="geometry" />
        </mxCell>
        <mxCell id="EfGRZh3mrynFkJjudllw-18" value="" style="ellipse;whiteSpace=wrap;html=1;aspect=fixed;direction=south;flipH=1;flipV=1;fillColor=#ffff88;strokeColor=#36393d;" vertex="1" parent="1">
          <mxGeometry x="550" y="330" width="30" height="30" as="geometry" />
        </mxCell>
        <mxCell id="EfGRZh3mrynFkJjudllw-22" value="6" style="text;html=1;align=center;verticalAlign=middle;resizable=0;points=[];autosize=1;strokeColor=none;fillColor=none;" vertex="1" parent="1">
          <mxGeometry x="405" y="248" width="30" height="30" as="geometry" />
        </mxCell>
        <mxCell id="EfGRZh3mrynFkJjudllw-23" value="12" style="text;html=1;align=center;verticalAlign=middle;resizable=0;points=[];autosize=1;strokeColor=none;fillColor=none;" vertex="1" parent="1">
          <mxGeometry x="465" y="250" width="40" height="30" as="geometry" />
        </mxCell>
        <mxCell id="EfGRZh3mrynFkJjudllw-24" value="9" style="text;html=1;align=center;verticalAlign=middle;resizable=0;points=[];autosize=1;strokeColor=none;fillColor=none;" vertex="1" parent="1">
          <mxGeometry x="520" y="268" width="30" height="30" as="geometry" />
        </mxCell>
        <mxCell id="EfGRZh3mrynFkJjudllw-25" value="5" style="text;html=1;align=center;verticalAlign=middle;resizable=0;points=[];autosize=1;strokeColor=none;fillColor=none;" vertex="1" parent="1">
          <mxGeometry x="436" y="273" width="30" height="30" as="geometry" />
        </mxCell>
        <mxCell id="EfGRZh3mrynFkJjudllw-26" value="8" style="text;html=1;align=center;verticalAlign=middle;resizable=0;points=[];autosize=1;strokeColor=none;fillColor=none;" vertex="1" parent="1">
          <mxGeometry x="424" y="316" width="30" height="30" as="geometry" />
        </mxCell>
        <mxCell id="EfGRZh3mrynFkJjudllw-27" value="7" style="text;html=1;align=center;verticalAlign=middle;resizable=0;points=[];autosize=1;strokeColor=none;fillColor=none;" vertex="1" parent="1">
          <mxGeometry x="479" y="305" width="30" height="30" as="geometry" />
        </mxCell>
        <mxCell id="EfGRZh3mrynFkJjudllw-28" value="15" style="text;html=1;align=center;verticalAlign=middle;resizable=0;points=[];autosize=1;strokeColor=none;fillColor=none;" vertex="1" parent="1">
          <mxGeometry x="513" y="321" width="40" height="30" as="geometry" />
        </mxCell>
        <mxCell id="EfGRZh3mrynFkJjudllw-29" value="10" style="text;html=1;align=center;verticalAlign=middle;resizable=0;points=[];autosize=1;strokeColor=none;fillColor=none;" vertex="1" parent="1">
          <mxGeometry x="465" y="355" width="40" height="30" as="geometry" />
        </mxCell>
        <mxCell id="EfGRZh3mrynFkJjudllw-30" value="3" style="text;html=1;align=center;verticalAlign=middle;resizable=0;points=[];autosize=1;strokeColor=none;fillColor=none;" vertex="1" parent="1">
          <mxGeometry x="403" y="355" width="30" height="30" as="geometry" />
        </mxCell>
        <mxCell id="EfGRZh3mrynFkJjudllw-31" value="14" style="text;html=1;align=center;verticalAlign=middle;resizable=0;points=[];autosize=1;strokeColor=none;fillColor=none;" vertex="1" parent="1">
          <mxGeometry x="363" y="305" width="40" height="30" as="geometry" />
        </mxCell>
      </root>
    </mxGraphModel>
  </diagram>
</mxfile>
